<!DOCTYPE svg PUBLIC "-//W3C//DTD SVG 1.1//EN" "http://www.w3.org/Graphics/SVG/1.1/DTD/svg11.dtd">

<!-- Uploaded to: SVG Repo, www.svgrepo.com, Transformed by: SVG Repo Mixer Tools -->
<svg fill="#3a88fe" width="129px" height="129px" viewBox="-6.24 -6.24 36.48 36.48" role="img" xmlns="http://www.w3.org/2000/svg" stroke="#3a88fe" transform="matrix(1, 0, 0, 1, 0, 0)rotate(-5)" stroke-width="0.00024000000000000003">

<g id="SVGRepo_bgCarrier" stroke-width="0" transform="translate(0,0), scale(1)">

<path transform="translate(-6.24, -6.24), scale(1.14)" d="M16,26.76429518292609C17.584556332715533,26.374717762624115,18.103359069468205,24.080834313743896,19.667206053475688,23.61503183568186C21.661453933735643,23.02103151851873,24.47038113559612,25.414541171146624,25.827443056245443,23.837124318112902C27.154174555367394,22.294962833569663,24.57966428740036,19.983459943501416,24.5413026625789,17.94949659552485C24.513982720755145,16.50097191501416,25.613029739247033,15.248721975365424,25.63814054845019,13.800157314561144C25.6663846745222,12.170841326684867,25.73199231064504,10.32300349318723,24.695302433350975,9.065727701118188C23.657161565482777,7.806692178040544,21.450053986896627,8.307154599001636,20.222410811361716,7.23207360508904C18.40440116342547,5.639992405766307,18.282594911267694,2.244511399489591,16.000000000000004,1.4510114963509544C13.979977355401548,0.7487897552464301,12.081378935253277,2.9535225524382884,10.07957639316557,3.7061137036363387C7.895980714046865,4.527051209383112,4.62415636966113,4.0157571335010065,3.6013166981763085,6.1123800096149825C2.4725903431423593,8.426050042965894,5.1527708857784384,10.980977956739949,5.276086189274283,13.552336652779449C5.36098536938948,15.322646086297523,4.1946397295092135,16.919904517470826,4.204611310449728,18.69222049628523C4.215854888845875,20.69061711658258,3.9071858252714273,23.10742699397446,5.337697355805149,24.50290262295588C6.8166346172422845,25.9456179461648,9.326657326552075,25.231773708326273,11.347778276631827,25.660437950172636C12.926686195103402,25.99531220190415,14.432646216154378,27.149643201929425,16,26.76429518292609" fill="#7ed0ec" strokewidth="0"/>

</g>

<g id="SVGRepo_tracerCarrier" stroke-linecap="round" stroke-linejoin="round" stroke="#CCCCCC" stroke-width="0.144"/>

<g id="SVGRepo_iconCarrier">

<title>Bloglovin icon</title>

<path d="M12.526 11.695c1.84-.382 3.367-2.044 3.367-4.478 0-2.604-1.9-4.97-5.615-4.97H0v19.506h10.6c3.75 0 5.683-2.341 5.683-5.292-.009-2.426-1.646-4.444-3.757-4.766zm-8.37-5.793h5.207c1.407 0 2.28.849 2.28 2.044 0 1.255-.881 2.044-2.28 2.044H4.155zM9.54 18.098H4.155v-4.444h5.386c1.61 0 2.484.992 2.484 2.222.009 1.399-.932 2.222-2.484 2.222zM21.396 2.28c-1.255 0-2.315 1.052-2.315 2.307s.882 2.103 1.993 2.103c.238 0 .467-.025.56-.085-.238 1.052-1.315 2.282-2.256 2.782l1.611 1.314C22.796 9.422 24 7.462 24 5.266c0-1.9-1.23-2.985-2.604-2.985Z"/>

</g>

</svg>